<svg id="SvgjsSvg1001" width="288" height="288" xmlns="http://www.w3.org/2000/svg" version="1.1" xmlnsXlink="http://www.w3.org/1999/xlink" xmlnsSvgjs="http://svgjs.com/svgjs"><defs id="SvgjsDefs1002"></defs><g id="SvgjsG1008" transform="matrix(0.9167,0,0,0.9167,11.995200000000011,11.995200000000011)"><svg xmlns="http://www.w3.org/2000/svg" width="288" height="288" enable-background="new 0 0 512 512" viewBox="0 0 512 512"><path d="M396 482h-59.189l-10-30h-141.622l-10 30h-59.189c-8.284 0-15 6.716-15 15s6.716 15 15 15h280c8.284 0 15-6.716 15-15s-6.716-15-15-15zM0 377c0 24.813 20.187 45 45 45h422c24.813 0 45-20.187 45-45v-15h-512zM467 82h-36v33 103.905 16.095c0 8.284-6.716 15-15 15h-120c-13.785 0-25 11.215-25 25 0 8.284-6.716 15-15 15s-15-6.716-15-15c0-13.785-11.215-25-25-25h-120c-8.284 0-15-6.716-15-15v-16.095-103.905-33h-36c-24.813 0-45 20.187-45 45v205h512v-205c0-24.813-20.187-45-45-45z" fill="#ff6611" class="color000 svgShape"></path><g fill="#ff6611" class="color000 svgShape"><path d="M206 0h-80c-8.284 0-15 6.716-15 15v205h105c8.996 0 17.496 2.172 25 6.017v-191.017c0-19.33-15.67-35-35-35zm-10 180h-40c-8.284 0-15-6.716-15-15s6.716-15 15-15h40c8.284 0 15 6.716 15 15s-6.716 15-15 15zm0-55h-40c-8.284 0-15-6.716-15-15s6.716-15 15-15h40c8.284 0 15 6.716 15 15s-6.716 15-15 15zm0-55h-40c-8.284 0-15-6.716-15-15s6.716-15 15-15h40c8.284 0 15 6.716 15 15s-6.716 15-15 15zM386 0h-80c-19.33 0-35 15.67-35 35v191.017c7.504-3.845 16.004-6.017 25-6.017h105v-205c0-8.284-6.716-15-15-15zm-30 180h-40c-8.284 0-15-6.716-15-15s6.716-15 15-15h40c8.284 0 15 6.716 15 15s-6.716 15-15 15zm0-55h-40c-8.284 0-15-6.716-15-15s6.716-15 15-15h40c8.284 0 15 6.716 15 15s-6.716 15-15 15zm0-55h-40c-8.284 0-15-6.716-15-15s6.716-15 15-15h40c8.284 0 15 6.716 15 15s-6.716 15-15 15z" fill="#ff6611" class="color000 svgShape"></path></g></svg></g></svg>